<svg xmlns="http://www.w3.org/2000/svg" class="brush" viewBox="0 0 512 512"><g id="f3a9860b-1da8-4fa8-a965-73c206341cfa" data-name="Layer 1"><path d="M457.89,0c-15.16,0-29.37,6.71-40.21,16.45C213.27,199.05,192,203.34,192,257.09a92.58,92.58,0,0,0,8.73,38.7L264.55,349a92,92,0,0,0,22.39,3c62.11,0,98.11-45.47,211.16-256.46,7.38-14.35,13.9-29.85,13.9-46C512,20.64,486,0,457.89,0Z"></path></g><g id="ad166dd9-5c99-4d4a-ad11-8a22134fde91" data-name="Layer 2"><path d="M168.09,306.8C128,309.38,91.56,324.66,70.9,379.1a15.26,15.26,0,0,1-14.59,10c-11.11,0-45.46-27.67-55.25-34.35,0,82.35,37.94,154.73,128,154.73,75.86,0,128-43.77,128-120.19a86.64,86.64,0,0,0-1-9.13l-88-73.34Z" class="brush-end"></path></g></svg>